<svg width="1280" height="640" viewBox="0 0 1280 640" xmlns="http://www.w3.org/2000/svg">
  <defs>
    <radialGradient id="glow" cx="50%" cy="50%" r="70%">
      <stop offset="0%" stop-color="#7C3AED" stop-opacity="0.45"/>
      <stop offset="45%" stop-color="#0B1020" stop-opacity="1"/>
      <stop offset="100%" stop-color="#05070D" stop-opacity="1"/>
    </radialGradient>
    <linearGradient id="line" x1="0" x2="1">
      <stop offset="0%" stop-color="#7C3AED"/>
      <stop offset="50%" stop-color="#EC4899"/>
      <stop offset="100%" stop-color="#22D3EE"/>
    </linearGradient>
  </defs>

  <rect width="1280" height="640" fill="url(#glow)"/>

  <g opacity="0.18" stroke="#22D3EE">
    <path d="M0 120H1280"/>
    <path d="M0 240H1280"/>
    <path d="M0 360H1280"/>
    <path d="M0 480H1280"/>
    <path d="M160 0V640"/>
    <path d="M320 0V640"/>
    <path d="M480 0V640"/>
    <path d="M640 0V640"/>
    <path d="M800 0V640"/>
    <path d="M960 0V640"/>
    <path d="M1120 0V640"/>
  </g>

  <g transform="translate(96 116)">
    <rect width="184" height="184" rx="40" fill="#080A12" stroke="#334155" stroke-width="4"/>
    <circle cx="92" cy="92" r="56" fill="none" stroke="#7C3AED" stroke-width="8"/>
    <path d="M54 92c18-28 58-28 76 0-18 28-58 28-76 0Z" fill="none" stroke="#22D3EE" stroke-width="8"/>
    <circle cx="92" cy="92" r="16" fill="#EC4899"/>
  </g>

  <text x="330" y="228" font-family="Menlo, Monaco, monospace" font-size="116" font-weight="900" fill="#E6F1FF">CYPHER</text>
  <rect x="334" y="262" width="600" height="8" rx="4" fill="url(#line)"/>
  <text x="334" y="334" font-family="Menlo, Monaco, monospace" font-size="34" font-weight="800" fill="#22D3EE">AUDIO • CRYPTO • TRANSPORT</text>

  <text x="334" y="420" font-family="Menlo, Monaco, monospace" font-size="28" fill="#A7B4C8">Universal lossless file ↔ audio codec</text>
  <text x="334" y="468" font-family="Menlo, Monaco, monospace" font-size="24" fill="#A7B4C8">Files, folders and bundles become encrypted FLAC/WAV artifacts.</text>
</svg>
